<?xml version="1.0" standalone="no"?>
<!DOCTYPE svg PUBLIC "-//W3C//DTD SVG 20010904//EN"
 "http://www.w3.org/TR/2001/REC-SVG-20010904/DTD/svg10.dtd">
<svg version="1.0" xmlns="http://www.w3.org/2000/svg"
 width="513.000000pt" height="513.000000pt" viewBox="0 0 513.000000 513.000000"
 preserveAspectRatio="xMidYMid meet">
<metadata>
Created by potrace 1.11, written by Peter Selinger 2001-2013
</metadata>
<g transform="translate(0.000000,513.000000) scale(0.100000,-0.100000)"
fill="#000000" stroke="none">
<path d="M2368 5085 c-2 -1 -32 -5 -68 -9 -36 -3 -79 -8 -95 -11 -17 -2 -43
-7 -60 -9 -94 -14 -327 -70 -385 -93 -8 -3 -19 -7 -25 -9 -5 -1 -23 -8 -40
-15 -16 -7 -34 -11 -39 -10 -4 1 -13 -2 -20 -7 -6 -5 -38 -19 -71 -32 -33 -13
-63 -28 -66 -33 -3 -5 -9 -8 -13 -7 -11 2 -137 -61 -205 -102 -34 -21 -67 -38
-72 -38 -5 0 -9 -4 -9 -10 0 -5 -7 -10 -15 -10 -8 0 -24 -9 -35 -20 -11 -11
-23 -20 -26 -19 -3 1 -16 -7 -28 -17 -12 -11 -40 -31 -62 -47 -22 -15 -50 -36
-62 -48 -12 -11 -22 -18 -22 -15 0 9 -104 -87 -215 -199 -112 -113 -165 -171
-165 -180 0 -3 -9 -16 -21 -28 -53 -56 -229 -322 -229 -346 0 -5 -7 -14 -15
-21 -8 -7 -15 -19 -15 -28 0 -8 -6 -23 -13 -31 -7 -9 -28 -50 -46 -91 -18 -41
-39 -87 -47 -102 -8 -15 -15 -31 -16 -35 0 -5 -4 -19 -9 -32 -5 -13 -11 -31
-13 -40 -2 -9 -6 -23 -9 -31 -12 -29 -36 -105 -41 -130 -2 -14 -11 -52 -20
-85 -8 -33 -18 -73 -21 -90 -2 -16 -7 -41 -10 -55 -10 -46 -14 -75 -20 -135
-3 -33 -8 -73 -10 -90 -5 -37 -6 -361 -1 -395 2 -14 7 -59 11 -100 4 -41 16
-120 27 -175 11 -55 22 -110 24 -122 2 -12 9 -35 15 -50 6 -16 10 -29 9 -31
-2 -4 41 -143 55 -177 6 -16 22 -57 35 -90 27 -69 103 -227 145 -300 41 -72
119 -189 127 -193 5 -2 8 -10 8 -18 0 -8 4 -14 8 -14 4 0 15 -12 24 -27 9 -16
25 -38 35 -49 10 -12 31 -38 47 -59 16 -20 49 -58 74 -83 24 -26 56 -60 71
-77 40 -45 256 -235 267 -235 3 0 12 -7 21 -16 65 -65 452 -283 593 -333 19
-7 44 -17 55 -22 31 -13 118 -41 135 -44 8 -1 22 -5 30 -8 44 -16 115 -35 155
-42 11 -1 38 -7 60 -13 67 -17 235 -40 360 -48 82 -5 282 -5 325 1 19 2 69 6
110 10 41 3 85 7 96 9 12 3 38 7 58 10 33 5 187 39 241 52 11 3 27 7 35 9 8 2
16 4 18 5 1 2 5 3 10 4 43 11 130 40 140 48 6 6 12 8 12 5 0 -11 186 69 305
131 86 44 250 143 253 153 2 5 10 9 18 9 8 0 14 5 14 10 0 6 5 10 11 10 6 0
25 11 43 25 17 14 42 35 56 46 159 127 309 272 405 394 22 27 45 55 50 61 6 6
17 22 25 34 8 12 20 28 25 34 10 10 78 113 100 148 66 108 192 364 201 408 0
3 4 12 7 20 22 54 55 150 51 150 -2 0 0 8 5 18 6 11 12 31 15 46 3 15 10 42
15 59 6 18 12 43 15 57 3 14 11 61 20 105 29 156 39 272 38 455 0 142 -9 271
-27 370 -2 14 -7 42 -10 64 -3 21 -7 42 -9 45 -3 4 -7 26 -11 51 -10 67 -71
261 -121 388 -54 135 -170 364 -195 382 -3 3 -9 15 -13 28 -4 12 -12 22 -17
22 -5 0 -9 7 -9 15 0 8 -4 15 -10 15 -5 0 -10 5 -10 10 0 6 -5 16 -10 23 -16
18 -63 82 -80 107 -17 25 -31 41 -108 129 -82 93 -125 135 -302 291 -25 22
-50 40 -57 40 -6 0 -13 3 -15 8 -12 27 -200 148 -364 233 -108 56 -304 142
-304 134 0 -2 -21 5 -46 16 -43 18 -167 54 -224 65 -14 3 -33 7 -42 10 -16 5
-35 9 -88 19 -14 3 -34 7 -45 9 -26 5 -120 18 -165 23 -45 5 -467 12 -472 8z"/>
</g>
</svg>
